<?xml version="1.0" encoding="utf-8"?>
<!-- Generator: Adobe Illustrator 24.1.0, SVG Export Plug-In . SVG Version: 6.00 Build 0)  -->
<svg version="1.1" id="Layer_1" xmlns="http://www.w3.org/2000/svg" xmlns:xlink="http://www.w3.org/1999/xlink" x="0px" y="0px"
	 width="140px" height="48px" viewBox="0 0 140 48" style="enable-background:new 0 0 140 48;" xml:space="preserve">
<style type="text/css">
	.st0{fill:url(#SVGID_1_);}
	.st1{fill:none;stroke:#FF6845;stroke-miterlimit:10;}
	.st2{fill:#FFFFFF;}
	.st3{fill:url(#SVGID_2_);}
	.st4{fill:url(#SVGID_3_);}
	.st5{fill:url(#SVGID_4_);}
	.st6{fill:url(#SVGID_5_);}
	.st7{fill:url(#SVGID_6_);}
	.st8{fill:url(#SVGID_7_);}
	.st9{fill:url(#SVGID_8_);}
	.st10{fill:url(#SVGID_9_);}
	.st11{fill:url(#SVGID_10_);}
</style>
<g>
	<g>
		<g>
			
				<radialGradient id="SVGID_1_" cx="27.3992" cy="50.1517" r="46.6008" gradientTransform="matrix(1 0 0 -1 0 50)" gradientUnits="userSpaceOnUse">
				<stop  offset="0" style="stop-color:#637F8B"/>
				<stop  offset="0.266" style="stop-color:#416372"/>
				<stop  offset="0.5318" style="stop-color:#274E5F"/>
				<stop  offset="0.7463" style="stop-color:#143E51"/>
				<stop  offset="0.8821" style="stop-color:#0F3A4D"/>
			</radialGradient>
			<path class="st0" d="M3.7,5.8c0-2.8,2.3-5,5-5h36.5c2.8,0,5,2.2,5,5v36.5c0,2.8-2.2,5-5,5H8.7c-2.8,0-5-2.2-5-5V5.8z"/>
			<path class="st1" d="M3.7,5.8c0-2.8,2.3-5,5-5h36.5c2.8,0,5,2.2,5,5v36.5c0,2.8-2.2,5-5,5H8.7c-2.8,0-5-2.2-5-5V5.8z"/>
		</g>
	</g>
</g>
<g>
	<path class="st2" d="M22.4,12.9c-3.5,0-6.7,1.4-8.9,4.1c-3.9,4.7-3,12.3,2.1,15.9c2.1,1.5,4.6,2.2,7.3,2.2c1.6,0,3.5,0,5.2,0V27
		h3.6c0,0.8,0,11.9,0,11.9c-2.4,0-7.9,0-9.2,0c-2.3,0-4.5-0.5-6.6-1.4c-4.1-2.1-7.1-5.8-8.2-10.2c-1-4.4,0.1-9,3-12.5
		S18,9.1,22.6,9.1h4.3v3.7H22.4z"/>
	<path class="st2" d="M28,21h3.6v-8.1h6.5c2.9,0,5.3,2.3,4.9,5.2c-0.1,1.5-1.2,3-2.5,3.6c-0.9,0.4-1.9,0.5-2.9,0.5
		c-2,0-18.3,0-18.3,0c-2,0-2,3.6,0,3.6h16.5c0,0,3.3,0.1,4.8-0.3c5.3-1.5,7.6-7.7,4.8-12.2C43.9,10.8,41,9.2,38,9.2H28V21L28,21z"/>
</g>
<g>
	<radialGradient id="SVGID_2_" cx="70.7972" cy="3.0553" r="18.3934" gradientUnits="userSpaceOnUse">
		<stop  offset="0" style="stop-color:#637F8B"/>
		<stop  offset="0.266" style="stop-color:#416372"/>
		<stop  offset="0.5318" style="stop-color:#274E5F"/>
		<stop  offset="0.7463" style="stop-color:#143E51"/>
		<stop  offset="0.8821" style="stop-color:#0F3A4D"/>
	</radialGradient>
	<path class="st3" d="M60.1,2.9h2.5l3.7,12.7L70,2.9h1.9l3.6,12.7l3.7-12.7h2.5l-4.9,16.7h-2.3L70.9,7l-3.7,12.6h-2.3L60.1,2.9z"/>
	<radialGradient id="SVGID_3_" cx="88.3226" cy="8.3237" r="12.0439" gradientUnits="userSpaceOnUse">
		<stop  offset="0" style="stop-color:#637F8B"/>
		<stop  offset="0.266" style="stop-color:#416372"/>
		<stop  offset="0.5318" style="stop-color:#274E5F"/>
		<stop  offset="0.7463" style="stop-color:#143E51"/>
		<stop  offset="0.8821" style="stop-color:#0F3A4D"/>
	</radialGradient>
	<path class="st4" d="M84,18.3c-1.2-1.1-1.8-2.5-1.8-4.5c0-1.9,0.5-3.4,1.6-4.5s2.6-1.6,4.6-1.6c1.3,0,2.4,0.3,3.4,0.8
		c0.9,0.5,1.6,1.2,2.1,2.1c0.5,0.9,0.7,1.9,0.7,3v1.2H84.5c0.1,1.1,0.5,1.9,1.4,2.4c0.8,0.5,2,0.8,3.4,0.8c0.7,0,1.5-0.1,2.2-0.2
		c0.7-0.1,1.4-0.3,2-0.5v1.9c-0.5,0.2-1.2,0.4-2,0.5c-0.8,0.1-1.7,0.2-2.5,0.2C86.8,19.9,85.2,19.4,84,18.3z M92.3,13.1
		c0-1.1-0.4-1.9-1.1-2.5c-0.7-0.6-1.6-0.9-2.9-0.9c-1.2,0-2.1,0.3-2.8,0.9c-0.7,0.6-1,1.4-1.1,2.5H92.3z"/>
	<radialGradient id="SVGID_4_" cx="98.4293" cy="2.1951" r="25.5935" gradientUnits="userSpaceOnUse">
		<stop  offset="0" style="stop-color:#637F8B"/>
		<stop  offset="0.266" style="stop-color:#416372"/>
		<stop  offset="0.5318" style="stop-color:#274E5F"/>
		<stop  offset="0.7463" style="stop-color:#143E51"/>
		<stop  offset="0.8821" style="stop-color:#0F3A4D"/>
	</radialGradient>
	<path class="st5" d="M101.6,19.4c-0.8-0.3-1.5-0.8-2.1-1.5v1.7h-2.3V2h2.4v7.7c0.5-0.6,1.2-1.1,2-1.4c0.8-0.3,1.7-0.5,2.7-0.5
		c1.1,0,2.2,0.3,3.1,0.8c0.9,0.5,1.6,1.2,2.1,2.2c0.5,0.9,0.8,2,0.8,3.2c0,1.2-0.3,2.3-0.8,3.2c-0.5,0.9-1.2,1.6-2.1,2.1
		c-0.9,0.5-1.9,0.8-3.1,0.8C103.2,19.9,102.3,19.8,101.6,19.4z M105.8,17.5c0.6-0.3,1.1-0.8,1.5-1.5c0.4-0.6,0.5-1.4,0.5-2.2
		c0-0.8-0.2-1.5-0.5-2.2c-0.4-0.6-0.9-1.1-1.5-1.5c-0.6-0.3-1.3-0.5-2.1-0.5c-1,0-1.8,0.3-2.6,0.8s-1.3,1.2-1.6,2.1v2.6
		c0.3,0.9,0.8,1.6,1.6,2.1c0.7,0.5,1.6,0.8,2.6,0.8C104.5,18,105.2,17.9,105.8,17.5z"/>
</g>
<g>
	<radialGradient id="SVGID_5_" cx="66.4706" cy="22.9706" r="19.5329" gradientUnits="userSpaceOnUse">
		<stop  offset="0" style="stop-color:#637F8B"/>
		<stop  offset="0.266" style="stop-color:#416372"/>
		<stop  offset="0.5318" style="stop-color:#274E5F"/>
		<stop  offset="0.7463" style="stop-color:#143E51"/>
		<stop  offset="0.8821" style="stop-color:#0F3A4D"/>
	</radialGradient>
	<path class="st6" d="M60.6,23.7H66c1.8,0,3.4,0.3,4.7,1c1.3,0.7,2.3,1.6,3,2.9c0.7,1.2,1.1,2.7,1.1,4.4c0,2.8-0.8,4.9-2.4,6.3
		c-1.6,1.4-3.8,2.1-6.7,2.1h-5V23.7z M65.6,38.4c2.2,0,3.9-0.6,5-1.7c1.1-1.1,1.7-2.7,1.7-4.8c0-1.9-0.5-3.4-1.6-4.5
		c-1.1-1.1-2.7-1.7-4.7-1.7h-3v12.6H65.6z"/>
	<radialGradient id="SVGID_6_" cx="83.3824" cy="27.5294" r="14.8791" gradientUnits="userSpaceOnUse">
		<stop  offset="0" style="stop-color:#637F8B"/>
		<stop  offset="0.266" style="stop-color:#416372"/>
		<stop  offset="0.5318" style="stop-color:#274E5F"/>
		<stop  offset="0.7463" style="stop-color:#143E51"/>
		<stop  offset="0.8821" style="stop-color:#0F3A4D"/>
	</radialGradient>
	<path class="st7" d="M78.7,39.2c-1.2-1.1-1.8-2.6-1.8-4.5c0-1.9,0.5-3.4,1.6-4.5c1.1-1.1,2.6-1.7,4.6-1.7c1.3,0,2.4,0.3,3.4,0.8
		c0.9,0.5,1.6,1.2,2.1,2.1c0.5,0.9,0.7,1.9,0.7,3v1.2H79.2c0.1,1.1,0.5,1.9,1.4,2.4c0.8,0.5,2,0.8,3.4,0.8c0.7,0,1.5-0.1,2.2-0.2
		c0.7-0.1,1.4-0.3,2-0.5v1.9c-0.5,0.2-1.2,0.4-2,0.5c-0.8,0.1-1.7,0.2-2.5,0.2C81.6,40.8,79.9,40.3,78.7,39.2z M87.1,34
		c0-1.1-0.4-1.9-1.1-2.5c-0.7-0.6-1.6-0.9-2.9-0.9c-1.2,0-2.2,0.3-2.8,0.9c-0.7,0.6-1,1.5-1.1,2.5H87.1z"/>
	<radialGradient id="SVGID_7_" cx="96.3235" cy="27.8235" r="16.3401" gradientUnits="userSpaceOnUse">
		<stop  offset="0" style="stop-color:#637F8B"/>
		<stop  offset="0.266" style="stop-color:#416372"/>
		<stop  offset="0.5318" style="stop-color:#274E5F"/>
		<stop  offset="0.7463" style="stop-color:#143E51"/>
		<stop  offset="0.8821" style="stop-color:#0F3A4D"/>
	</radialGradient>
	<path class="st8" d="M93.7,40.5c-0.9-0.2-1.6-0.5-2.1-0.8v-2.1c0.6,0.4,1.3,0.7,2.2,0.9s1.6,0.3,2.4,0.3c0.9,0,1.5-0.1,1.9-0.3
		c0.4-0.2,0.6-0.5,0.6-1c0-0.4-0.1-0.6-0.3-0.8c-0.2-0.2-0.5-0.4-0.9-0.6c-0.4-0.2-1.1-0.4-2-0.6c-0.9-0.3-1.7-0.5-2.2-0.8
		c-0.6-0.3-1-0.6-1.2-1.1c-0.3-0.4-0.4-1-0.4-1.7c0-1.1,0.4-1.9,1.3-2.5c0.9-0.6,2-0.8,3.5-0.8c0.8,0,1.5,0.1,2.2,0.2
		s1.3,0.3,1.8,0.6v2c-0.5-0.3-1-0.5-1.7-0.6c-0.7-0.2-1.4-0.2-2.1-0.2c-0.8,0-1.5,0.1-1.9,0.3c-0.4,0.2-0.7,0.6-0.7,1.1
		c0,0.3,0.1,0.6,0.3,0.8c0.2,0.2,0.5,0.4,0.9,0.5c0.4,0.2,1.1,0.3,2,0.6c1.5,0.4,2.5,0.9,3,1.4c0.6,0.5,0.8,1.3,0.8,2.2
		c0,1-0.4,1.8-1.2,2.4c-0.8,0.6-2,0.9-3.6,0.9C95.4,40.8,94.5,40.7,93.7,40.5z"/>
	<radialGradient id="SVGID_8_" cx="104.8529" cy="23.1176" r="18.9712" gradientUnits="userSpaceOnUse">
		<stop  offset="0" style="stop-color:#637F8B"/>
		<stop  offset="0.266" style="stop-color:#416372"/>
		<stop  offset="0.5318" style="stop-color:#274E5F"/>
		<stop  offset="0.7463" style="stop-color:#143E51"/>
		<stop  offset="0.8821" style="stop-color:#0F3A4D"/>
	</radialGradient>
	<path class="st9" d="M104.1,26.3c-0.3-0.3-0.4-0.6-0.4-1c0-0.4,0.1-0.7,0.4-1c0.3-0.3,0.6-0.4,1-0.4c0.4,0,0.8,0.1,1,0.4
		c0.3,0.3,0.4,0.6,0.4,1c0,0.4-0.1,0.7-0.4,1c-0.3,0.3-0.6,0.4-1,0.4C104.7,26.7,104.3,26.6,104.1,26.3z M103.8,29h2.5v11.5h-2.5V29
		z"/>
	<radialGradient id="SVGID_9_" cx="116.4706" cy="28.1176" r="17.6526" gradientUnits="userSpaceOnUse">
		<stop  offset="0" style="stop-color:#637F8B"/>
		<stop  offset="0.266" style="stop-color:#416372"/>
		<stop  offset="0.5318" style="stop-color:#274E5F"/>
		<stop  offset="0.7463" style="stop-color:#143E51"/>
		<stop  offset="0.8821" style="stop-color:#0F3A4D"/>
	</radialGradient>
	<path class="st10" d="M113.4,45.8c-0.7-0.1-1.4-0.3-1.9-0.6v-2c1.2,0.5,2.6,0.8,4.2,0.8c1.5,0,2.6-0.3,3.2-1c0.7-0.6,1-1.6,1-2.9
		v-1.2c-1.1,1.3-2.6,1.9-4.6,1.9c-1.2,0-2.2-0.3-3.1-0.8c-0.9-0.5-1.7-1.2-2.2-2.2c-0.5-0.9-0.8-2-0.8-3.2c0-1.2,0.3-2.3,0.8-3.2
		c0.5-0.9,1.2-1.6,2.2-2.1c0.9-0.5,1.9-0.8,3.1-0.8c1.1,0,2,0.2,2.7,0.5c0.7,0.3,1.4,0.8,2.1,1.5V29h2.3v10.9c0,2-0.5,3.5-1.6,4.5
		c-1.1,1-2.8,1.6-5,1.6C114.9,46,114.1,45.9,113.4,45.8z M118.4,38.1c0.8-0.5,1.3-1.2,1.5-2.1v-2.6c-0.3-0.9-0.8-1.6-1.6-2.1
		c-0.7-0.5-1.6-0.8-2.6-0.8c-0.8,0-1.5,0.2-2.1,0.5c-0.6,0.3-1.1,0.8-1.5,1.5c-0.4,0.6-0.5,1.4-0.5,2.2c0,0.8,0.2,1.6,0.5,2.2
		c0.4,0.6,0.9,1.1,1.5,1.5c0.6,0.4,1.3,0.5,2.1,0.5C116.7,38.9,117.6,38.6,118.4,38.1z"/>
	<radialGradient id="SVGID_10_" cx="131.4706" cy="27.6765" r="14.7323" gradientUnits="userSpaceOnUse">
		<stop  offset="0" style="stop-color:#637F8B"/>
		<stop  offset="0.266" style="stop-color:#416372"/>
		<stop  offset="0.5318" style="stop-color:#274E5F"/>
		<stop  offset="0.7463" style="stop-color:#143E51"/>
		<stop  offset="0.8821" style="stop-color:#0F3A4D"/>
	</radialGradient>
	<path class="st11" d="M125.4,29h2.3v1.7c0.5-0.7,1.2-1.2,2-1.5c0.8-0.3,1.6-0.5,2.5-0.5c1.5,0,2.7,0.4,3.4,1.2
		c0.8,0.8,1.1,1.9,1.1,3.3v7.3h-2.4v-7.1c0-1.9-0.9-2.8-2.7-2.8c-0.8,0-1.5,0.2-2.1,0.5s-1.2,0.9-1.7,1.6v7.7h-2.4V29z"/>
</g>
</svg>
