<?xml version="1.0" encoding="utf-8"?>
<!-- Generator: Adobe Illustrator 24.0.3, SVG Export Plug-In . SVG Version: 6.00 Build 0)  -->
<svg version="1.1" id="Layer_1" xmlns="http://www.w3.org/2000/svg" xmlns:xlink="http://www.w3.org/1999/xlink" x="0px" y="0px"
	 width="112px" height="48px" viewBox="0 0 112 48" style="enable-background:new 0 0 112 48;" xml:space="preserve">
<style type="text/css">
	.st0{fill:url(#SVGID_1_);}
	.st1{fill:none;stroke:#FF6845;stroke-miterlimit:10;}
	.st2{fill:#FFFFFF;}
	.st3{fill:url(#SVGID_2_);}
	.st4{fill:url(#SVGID_3_);}
	.st5{fill:url(#SVGID_4_);}
	.st6{fill:url(#SVGID_5_);}
	.st7{fill:url(#SVGID_6_);}
	.st8{fill:url(#SVGID_7_);}
	.st9{fill:url(#SVGID_8_);}
</style>
<g>
	<g>
		<g>
			
				<radialGradient id="SVGID_1_" cx="24.4331" cy="50.1017" r="46.6008" gradientTransform="matrix(1 0 0 -1 0 50)" gradientUnits="userSpaceOnUse">
				<stop  offset="0" style="stop-color:#637F8B"/>
				<stop  offset="0.266" style="stop-color:#416372"/>
				<stop  offset="0.5318" style="stop-color:#274E5F"/>
				<stop  offset="0.7463" style="stop-color:#143E51"/>
				<stop  offset="0.8821" style="stop-color:#0F3A4D"/>
			</radialGradient>
			<path class="st0" d="M0.8,5.8c0-2.8,2.2-5,5-5h36.5c2.8,0,5,2.2,5,5v36.5c0,2.8-2.2,5-5,5H5.8c-2.8,0-5-2.2-5-5V5.8z"/>
			<path class="st1" d="M0.8,5.8c0-2.8,2.2-5,5-5h36.5c2.8,0,5,2.2,5,5v36.5c0,2.8-2.2,5-5,5H5.8c-2.8,0-5-2.2-5-5V5.8z"/>
		</g>
	</g>
</g>
<g>
	<path class="st2" d="M19.4,12.9c-3.5,0-6.7,1.4-8.9,4.1c-3.9,4.7-3,12.3,2.1,15.9c2.1,1.5,4.6,2.2,7.3,2.2c1.6,0,3.5,0,5.2,0V27
		h3.6c0,0.8,0,11.9,0,11.9c-2.4,0-7.9,0-9.2,0c-2.3,0-4.5-0.5-6.6-1.4c-4.1-2.1-7.1-5.8-8.2-10.2c-1-4.4,0.1-9,3-12.5
		S15,9.2,19.6,9.2h4.3v3.7H19.4z"/>
	<path class="st2" d="M25,21h3.6v-8.1h6.5c2.9,0,5.3,2.3,4.9,5.2c-0.1,1.5-1.2,3-2.5,3.6c-0.9,0.4-1.9,0.5-2.9,0.5
		c-2,0-18.3,0-18.3,0c-2,0-2,3.6,0,3.6h16.5c0,0,3.3,0.1,4.8-0.3c5.3-1.5,7.6-7.7,4.8-12.2C40.9,10.8,38,9.2,35,9.2H25V21L25,21z"/>
</g>
<g>
	<radialGradient id="SVGID_2_" cx="67.1044" cy="3.2476" r="20.7613" gradientUnits="userSpaceOnUse">
		<stop  offset="0" style="stop-color:#637F8B"/>
		<stop  offset="0.266" style="stop-color:#416372"/>
		<stop  offset="0.5318" style="stop-color:#274E5F"/>
		<stop  offset="0.7463" style="stop-color:#143E51"/>
		<stop  offset="0.8821" style="stop-color:#0F3A4D"/>
	</radialGradient>
	<path class="st3" d="M55,3.1h2.9l4.2,14.3l4.1-14.3h2.2l4.1,14.3l4.2-14.3h2.9L74,21.9h-2.6L67.3,7.7l-4.1,14.2h-2.6L55,3.1z"/>
	<radialGradient id="SVGID_3_" cx="86.8859" cy="9.1942" r="13.5944" gradientUnits="userSpaceOnUse">
		<stop  offset="0" style="stop-color:#637F8B"/>
		<stop  offset="0.266" style="stop-color:#416372"/>
		<stop  offset="0.5318" style="stop-color:#274E5F"/>
		<stop  offset="0.7463" style="stop-color:#143E51"/>
		<stop  offset="0.8821" style="stop-color:#0F3A4D"/>
	</radialGradient>
	<path class="st4" d="M82,20.5c-1.4-1.2-2-2.9-2-5c0-2.1,0.6-3.8,1.8-5s2.9-1.9,5.2-1.9c1.5,0,2.8,0.3,3.8,0.8
		c1,0.6,1.8,1.3,2.4,2.3c0.5,1,0.8,2.1,0.8,3.4v1.3H82.5c0.1,1.2,0.6,2.1,1.5,2.7c0.9,0.6,2.2,0.9,3.8,0.9c0.8,0,1.7-0.1,2.5-0.2
		c0.8-0.2,1.6-0.4,2.2-0.6v2.2c-0.6,0.2-1.3,0.4-2.3,0.6c-0.9,0.2-1.9,0.2-2.8,0.2C85.2,22.3,83.3,21.7,82,20.5z M91.3,14.6
		c0-1.2-0.4-2.2-1.2-2.8c-0.8-0.7-1.8-1-3.2-1c-1.4,0-2.4,0.4-3.2,1.1c-0.8,0.7-1.1,1.6-1.2,2.8H91.3z"/>
	<radialGradient id="SVGID_4_" cx="98.2937" cy="2.2767" r="28.8883" gradientUnits="userSpaceOnUse">
		<stop  offset="0" style="stop-color:#637F8B"/>
		<stop  offset="0.266" style="stop-color:#416372"/>
		<stop  offset="0.5318" style="stop-color:#274E5F"/>
		<stop  offset="0.7463" style="stop-color:#143E51"/>
		<stop  offset="0.8821" style="stop-color:#0F3A4D"/>
	</radialGradient>
	<path class="st5" d="M101.8,21.7c-0.9-0.4-1.6-0.9-2.4-1.7v1.9h-2.6V2h2.7v8.7c0.6-0.7,1.4-1.2,2.3-1.6c0.9-0.4,1.9-0.5,3-0.5
		c1.3,0,2.5,0.3,3.5,0.9c1,0.6,1.8,1.4,2.4,2.4c0.6,1,0.9,2.2,0.9,3.6c0,1.4-0.3,2.6-0.9,3.6c-0.6,1-1.4,1.8-2.4,2.4
		c-1,0.6-2.2,0.8-3.5,0.8C103.7,22.3,102.7,22.1,101.8,21.7z M106.6,19.6c0.7-0.4,1.3-0.9,1.7-1.7c0.4-0.7,0.6-1.5,0.6-2.5
		s-0.2-1.7-0.6-2.5c-0.4-0.7-1-1.3-1.7-1.7c-0.7-0.4-1.5-0.6-2.4-0.6c-1.1,0-2.1,0.3-2.9,0.9c-0.9,0.6-1.4,1.4-1.7,2.4v2.9
		c0.3,1,0.9,1.8,1.8,2.4c0.8,0.6,1.8,0.9,2.9,0.9C105.1,20.1,105.9,20,106.6,19.6z"/>
	<radialGradient id="SVGID_5_" cx="61.6432" cy="27.1553" r="20.2674" gradientUnits="userSpaceOnUse">
		<stop  offset="0" style="stop-color:#637F8B"/>
		<stop  offset="0.266" style="stop-color:#416372"/>
		<stop  offset="0.5318" style="stop-color:#274E5F"/>
		<stop  offset="0.7463" style="stop-color:#143E51"/>
		<stop  offset="0.8821" style="stop-color:#0F3A4D"/>
	</radialGradient>
	<path class="st6" d="M55.5,26.6H68V29h-9.7v5.9h7.2v2.3h-7.2v6H68v2.3H55.5V26.6z"/>
	<radialGradient id="SVGID_6_" cx="76.3277" cy="33.1019" r="16.5066" gradientUnits="userSpaceOnUse">
		<stop  offset="0" style="stop-color:#637F8B"/>
		<stop  offset="0.266" style="stop-color:#416372"/>
		<stop  offset="0.5318" style="stop-color:#274E5F"/>
		<stop  offset="0.7463" style="stop-color:#143E51"/>
		<stop  offset="0.8821" style="stop-color:#0F3A4D"/>
	</radialGradient>
	<path class="st7" d="M71.2,44.7c-0.9-0.8-1.4-1.9-1.4-3.2c0-1.4,0.5-2.5,1.4-3.3c0.9-0.8,2.2-1.2,3.9-1.2c1.8,0,3.3,0.4,4.5,1.1
		v-0.7c0-1-0.3-1.8-0.9-2.3c-0.6-0.5-1.6-0.7-2.9-0.7c-0.8,0-1.6,0.1-2.3,0.2c-0.7,0.2-1.4,0.4-2,0.6V33c0.5-0.3,1.2-0.5,2.1-0.6
		c0.9-0.2,1.7-0.2,2.5-0.2c2.1,0,3.7,0.5,4.8,1.4c1,0.9,1.5,2.2,1.5,3.9v8h-2.6V44c-0.6,0.6-1.2,1.1-2,1.4c-0.8,0.3-1.7,0.5-2.8,0.5
		C73.4,45.9,72.2,45.5,71.2,44.7z M78,43.3c0.7-0.3,1.2-0.8,1.6-1.4v-1.8c-1.2-0.8-2.5-1.1-3.9-1.1c-1,0-1.8,0.2-2.3,0.6
		c-0.5,0.4-0.8,1-0.8,1.8c0,1.6,1,2.4,3.1,2.4C76.5,43.8,77.3,43.6,78,43.3z"/>
	<radialGradient id="SVGID_7_" cx="89.7985" cy="31.0388" r="16.748" gradientUnits="userSpaceOnUse">
		<stop  offset="0" style="stop-color:#637F8B"/>
		<stop  offset="0.266" style="stop-color:#416372"/>
		<stop  offset="0.5318" style="stop-color:#274E5F"/>
		<stop  offset="0.7463" style="stop-color:#143E51"/>
		<stop  offset="0.8821" style="stop-color:#0F3A4D"/>
	</radialGradient>
	<path class="st8" d="M87.2,45.5c-1-0.2-1.8-0.5-2.4-0.9v-2.3c0.7,0.4,1.5,0.7,2.4,1c0.9,0.3,1.8,0.4,2.7,0.4c1,0,1.7-0.1,2.1-0.4
		c0.4-0.2,0.7-0.6,0.7-1.1c0-0.4-0.1-0.7-0.3-1c-0.2-0.2-0.6-0.5-1.1-0.7c-0.5-0.2-1.2-0.4-2.2-0.7c-1.1-0.3-1.9-0.6-2.5-0.9
		c-0.6-0.3-1.1-0.7-1.4-1.2c-0.3-0.5-0.5-1.1-0.5-1.9c0-1.2,0.5-2.2,1.5-2.8s2.3-1,3.9-1c0.9,0,1.7,0.1,2.5,0.2
		c0.8,0.2,1.5,0.4,2,0.7v2.3c-0.5-0.3-1.2-0.5-1.9-0.7c-0.8-0.2-1.5-0.3-2.3-0.3c-1,0-1.7,0.1-2.2,0.4c-0.5,0.2-0.8,0.6-0.8,1.2
		c0,0.4,0.1,0.7,0.3,0.9c0.2,0.2,0.6,0.4,1,0.6c0.5,0.2,1.2,0.4,2.3,0.7c1.6,0.4,2.8,1,3.4,1.6c0.6,0.6,1,1.5,1,2.5
		c0,1.1-0.5,2-1.4,2.7c-0.9,0.7-2.3,1-4.1,1C89.2,45.9,88.2,45.7,87.2,45.5z"/>
	<radialGradient id="SVGID_8_" cx="105.6966" cy="31.1602" r="16.7493" gradientUnits="userSpaceOnUse">
		<stop  offset="0" style="stop-color:#637F8B"/>
		<stop  offset="0.266" style="stop-color:#416372"/>
		<stop  offset="0.5318" style="stop-color:#274E5F"/>
		<stop  offset="0.7463" style="stop-color:#143E51"/>
		<stop  offset="0.8821" style="stop-color:#0F3A4D"/>
	</radialGradient>
	<path class="st9" d="M99.9,44.1c-1.4-1.2-2-2.9-2-5c0-2.1,0.6-3.8,1.8-5s2.9-1.9,5.2-1.9c1.5,0,2.8,0.3,3.8,0.8
		c1,0.6,1.8,1.3,2.4,2.3c0.5,1,0.8,2.1,0.8,3.4v1.3h-11.4c0.1,1.2,0.6,2.1,1.5,2.7c0.9,0.6,2.2,0.9,3.8,0.9c0.8,0,1.7-0.1,2.5-0.2
		c0.8-0.2,1.6-0.4,2.2-0.6v2.2c-0.6,0.2-1.3,0.4-2.3,0.6c-0.9,0.2-1.9,0.2-2.8,0.2C103.2,45.9,101.3,45.3,99.9,44.1z M109.3,38.2
		c0-1.2-0.4-2.2-1.2-2.8c-0.8-0.7-1.8-1-3.2-1c-1.4,0-2.4,0.4-3.2,1.1c-0.8,0.7-1.1,1.6-1.2,2.8H109.3z"/>
</g>
</svg>
